<svg width="100" height="100" viewBox="0 0 100 100" fill="none" xmlns="http://www.w3.org/2000/svg">
<g clip-path="url(#clip0_1271_13)">
<path d="M16.2083 65.2998L26.0625 1.92065C26.1332 1.45051 26.3504 1.01468 26.6833 0.675228C27.0161 0.335779 27.4476 0.110034 27.9163 0.0301546C28.3849 -0.049725 28.8668 0.0203354 29.2934 0.230354C29.7199 0.440373 30.0692 0.779638 30.2917 1.19981L40.8875 21.079L16.2083 65.2998ZM86.1833 80.6831L76.8083 22.3498C76.744 21.9376 76.5664 21.5513 76.2953 21.2342C76.0241 20.9171 75.6701 20.6816 75.2729 20.5541C74.8756 20.4266 74.4507 20.412 74.0457 20.5121C73.6406 20.6121 73.2714 20.8228 72.9792 21.1206L13.8167 80.6873L46.55 99.1331C47.5602 99.7007 48.6995 99.9989 49.8583 99.9989C51.0171 99.9989 52.1564 99.7007 53.1667 99.1331L86.1833 80.6831ZM59.5833 29.779L52 15.2706C51.8086 14.9058 51.5212 14.6002 51.1686 14.387C50.8161 14.1739 50.412 14.0612 50 14.0612C49.588 14.0612 49.1839 14.1739 48.8313 14.387C48.4788 14.6002 48.1913 14.9058 48 15.2706L14.7083 74.9331L59.5833 29.779Z" fill="white"/>
</g>
<defs>
<clipPath id="clip0_1271_13">
<rect width="100" height="100" fill="white"/>
</clipPath>
</defs>
</svg>
