<svg width="100" height="100" viewBox="0 0 100 100" fill="none" xmlns="http://www.w3.org/2000/svg">
<g clip-path="url(#clip0_1271_10)">
<path d="M0 0H100V100H0V0ZM91.8083 76.15C91.0792 71.5875 88.1083 67.7542 79.2958 64.1792C76.2292 62.7417 72.8208 61.7417 71.8083 59.4292C71.4292 58.0542 71.3708 57.3042 71.6167 56.4917C72.2417 53.8 75.4292 52.9917 77.9292 53.7417C79.5542 54.2417 81.0542 55.4917 81.9958 57.4917C86.3042 54.675 86.3042 54.675 89.3083 52.8042C88.1833 51.0542 87.625 50.3 86.8667 49.5542C84.2417 46.6167 80.7458 45.1167 75.0583 45.2458L72.1208 45.6167C69.3042 46.3042 66.6208 47.8042 64.9958 49.8042C60.2458 55.1833 61.6167 64.5583 67.3667 68.4333C73.0542 72.6833 81.3708 73.6167 82.4333 77.6208C83.4333 82.4958 78.8083 84.0583 74.2417 83.4958C70.8625 82.7458 68.9917 81.0542 66.9292 77.9292L59.3042 82.3083C60.1792 84.3083 61.1792 85.1792 62.6792 86.9292C69.9292 94.2458 88.0542 93.8708 91.3083 82.7458C91.4292 82.3708 92.3083 79.8083 91.6167 75.8708L91.8083 76.15ZM54.3792 45.9625H45.0125C45.0125 54.0375 44.975 62.0625 44.975 70.15C44.975 75.2833 45.2375 79.9958 44.4 81.4458C43.025 84.3167 39.4833 83.95 37.875 83.4458C36.225 82.6292 35.3875 81.5042 34.4167 79.8833C34.1542 79.4458 33.9583 79.0667 33.8875 79.0667L26.2833 83.7542C27.5542 86.3792 29.4083 88.6375 31.8 90.075C35.3625 92.2 40.15 92.8875 45.1625 91.7625C48.425 90.8208 51.2375 88.8833 52.7083 85.8833C54.8333 82.0083 54.3833 77.2583 54.3625 71.9417C54.4125 63.3833 54.3625 54.8208 54.3625 46.1958L54.3792 45.9625Z" fill="white"/>
</g>
<defs>
<clipPath id="clip0_1271_10">
<rect width="100" height="100" fill="white"/>
</clipPath>
</defs>
</svg>
