<svg width="100" height="100" viewBox="0 0 100 100" fill="none" xmlns="http://www.w3.org/2000/svg">
<path d="M68.3542 22.9206C67.875 22.9206 67.55 22.9789 67.2125 23.0581V23.1123H67.2708C67.4958 23.5456 67.8792 23.8623 68.1625 24.2498C68.3875 24.6956 68.5792 25.1414 68.8042 25.5831L68.8625 25.5206C69.2542 25.2456 69.4458 24.8039 69.4458 24.1331C69.2792 23.9373 69.2542 23.7414 69.1125 23.5498C68.9458 23.2706 68.5875 23.1331 68.3625 22.9123L68.3542 22.9206ZM24.0417 77.8956H20.1792C20.0705 71.7572 19.6952 65.6264 19.0542 59.5206H19.0208L13.1458 77.8956H10.2083L4.375 59.5206H4.33333C3.87706 65.636 3.6061 71.7638 3.52083 77.8956H0C0.229167 69.7039 0.8 62.0206 1.70833 54.8539H6.5L12.0625 71.7873H12.0958L17.7083 54.8539H22.2708C23.2792 63.2498 23.8708 70.9373 24.0542 77.8956H24.0417ZM40.7792 60.8956C39.2042 69.4164 37.1292 75.6164 34.5625 79.4789C32.5542 82.4623 30.3542 83.9498 27.9667 83.9498C27.3292 83.9498 26.55 83.7581 25.6083 83.3748V81.3164C26.0667 81.3873 26.6083 81.4248 27.2167 81.4248C28.3333 81.4248 29.2292 81.1123 29.9125 80.4998C30.7333 79.7498 31.1417 78.9081 31.1417 77.9789C31.1417 77.3331 30.8208 76.0206 30.1833 74.0456L25.9583 60.8956H29.75L32.7792 70.7289C33.4625 72.9623 33.75 74.5206 33.6333 75.4081C35.3 70.9748 36.4583 66.1289 37.1125 60.8956H40.7792ZM92.1333 77.8956H81.175V54.8539H84.8625V75.0623H92.1333V77.8956ZM78.3 78.4581L74.0667 76.3748C74.4417 76.0581 74.8042 75.7164 75.1292 75.3331C76.9333 73.2248 77.8292 70.0914 77.8292 65.9456C77.8292 58.3206 74.8375 54.5039 68.85 54.5039C65.9167 54.5039 63.625 55.4706 61.975 57.4081C60.1833 59.5248 59.2833 62.6414 59.2833 66.7623C59.2833 70.8123 60.075 73.7873 61.675 75.6789C63.1333 77.3873 65.3292 78.2414 68.2708 78.2414C69.3708 78.2414 70.3792 78.1039 71.2917 77.8331L76.8125 81.0498L78.3125 78.4581H78.3ZM64.5833 73.2831C63.6458 71.7831 63.1792 69.3664 63.1792 66.0498C63.1792 60.2456 64.9458 57.3414 68.4708 57.3414C70.3167 57.3414 71.6792 58.0373 72.5417 59.4248C73.475 60.9331 73.9417 63.3248 73.9417 66.6039C73.9417 72.4539 72.175 75.3873 68.65 75.3873C66.7958 75.3873 65.4417 74.6914 64.575 73.3039L64.5833 73.2831ZM57.675 71.5123C57.675 73.4706 56.9583 75.0789 55.525 76.3289C54.0917 77.5789 52.1792 78.2039 49.7583 78.2039C47.4958 78.2039 45.325 77.4873 43.2042 76.0581L44.1917 74.0748C46.0167 74.9914 47.6625 75.4414 49.15 75.4414C50.5333 75.4414 51.6208 75.1373 52.4125 74.5248C52.8082 74.2265 53.1277 73.8388 53.3449 73.3935C53.5622 72.9481 53.671 72.4577 53.6625 71.9623C53.6625 70.5873 52.7042 69.4206 50.9625 68.4414C49.3458 67.5539 46.1167 65.7039 46.1167 65.7039C44.3583 64.4248 43.4833 63.0539 43.4833 60.7998C43.4833 58.9248 44.1375 57.4248 45.4417 56.2789C46.7542 55.1206 48.4417 54.5498 50.525 54.5498C52.6583 54.5498 54.6083 55.1164 56.3583 56.2581L55.4708 58.2414C54.0725 57.6272 52.5647 57.3012 51.0375 57.2831C49.8583 57.2831 48.9458 57.5664 48.3125 58.1414C47.9911 58.4077 47.732 58.7412 47.5535 59.1184C47.3749 59.4956 47.2813 59.9074 47.2792 60.3248C47.2792 61.6914 48.2542 62.8664 50.0542 63.8664C51.6917 64.7623 55 66.6581 55 66.6581C56.8042 67.9289 57.7 69.2831 57.7 71.5248L57.675 71.5123ZM96.7667 47.1289C94.5375 47.0706 92.8083 47.2956 91.3625 47.9123C90.9458 48.0789 90.2792 48.0789 90.2208 48.6081C90.45 48.8289 90.4833 49.1914 90.6792 49.4998C91.0125 50.0581 91.5875 50.8039 92.1208 51.1956C92.7042 51.6539 93.2875 52.0956 93.9 52.4873C94.9833 53.1539 96.2125 53.5498 97.275 54.2206C97.8792 54.6123 98.4958 55.1081 99.1083 55.5248C99.4125 55.7331 99.6083 56.1081 100 56.2414V56.1581C99.8083 55.9081 99.75 55.5456 99.5625 55.2664C99.2833 54.9873 99.0042 54.7373 98.7292 54.4623C97.9111 53.3842 96.9348 52.436 95.8333 51.6498C94.9417 51.0414 92.9917 50.1914 92.625 49.1706L92.5708 49.1123C93.1792 49.0581 93.9042 48.8373 94.4875 48.6706C95.4333 48.4206 96.3 48.4748 97.2792 48.2289C97.7208 48.1164 98.1667 47.9789 98.6125 47.8373V47.5873C98.1125 47.0873 97.7375 46.4081 97.2208 45.9414C95.7787 44.6809 94.2407 43.5344 92.6208 42.5123C91.7458 41.9539 90.6375 41.5956 89.7167 41.1206C89.3833 40.9539 88.825 40.8706 88.6333 40.5914C88.1333 39.9831 87.8417 39.1748 87.4875 38.4498C86.6693 36.8626 85.9091 35.2463 85.2083 33.6039C84.7083 32.5123 84.4042 31.4248 83.7917 30.4248C80.9167 25.6873 77.8042 22.8164 73.0167 20.0081C71.9875 19.4248 70.7542 19.1748 69.45 18.8664C68.7542 18.8331 68.0583 18.7831 67.3667 18.7539C66.9083 18.5581 66.4667 18.0289 66.075 17.7748C64.4917 16.7748 60.3917 14.6081 59.225 17.4748C58.475 19.2831 60.3375 21.0664 60.9833 21.9831C61.4625 22.6206 62.0667 23.3498 62.4 24.0664C62.5958 24.5498 62.65 25.0456 62.8458 25.5498C63.2875 26.7748 63.7083 28.1414 64.2917 29.2873C64.5958 29.8706 64.9292 30.4831 65.3208 31.0081C65.5458 31.3123 65.9292 31.4539 66.0167 31.9539C65.625 32.5206 65.6 33.3456 65.375 34.0373C64.375 37.1914 64.7667 41.0914 66.1833 43.4123C66.6292 44.1039 67.6917 45.6373 69.1125 45.0498C70.3625 44.5498 70.0875 42.9664 70.4458 41.5706C70.5292 41.2373 70.475 41.0164 70.6458 40.7914V40.8539C71.0375 41.6373 71.4292 42.3831 71.7875 43.1664C72.6458 44.5331 74.1458 45.9498 75.4 46.8956C76.0667 47.3956 76.5958 48.2623 77.4292 48.5706V48.4873H77.3667C77.1875 48.2456 76.95 48.1289 76.725 47.9331C76.1967 47.4159 75.7091 46.8587 75.2667 46.2664C74.0927 44.6624 73.0517 42.965 72.1542 41.1914C71.6958 40.3164 71.3125 39.3748 70.9458 38.5123C70.7792 38.1789 70.7792 37.6789 70.5 37.5123C70.0833 38.1206 69.4708 38.6498 69.1667 39.3998C68.6375 40.5998 68.5833 42.0748 68.3833 43.6081C68.2708 43.6373 68.325 43.6081 68.2708 43.6664C67.3792 43.4498 67.075 42.5248 66.7417 41.7498C65.9083 39.7706 65.7708 36.5914 66.4917 34.3123C66.6875 33.7289 67.5208 31.8873 67.1875 31.3289C67.0125 30.7998 66.4625 30.4956 66.1583 30.0664C65.7671 29.5079 65.4321 28.9119 65.1583 28.2873C64.4917 26.7289 64.1583 25.0039 63.4333 23.4456C63.1 22.7248 62.5167 21.9706 62.0417 21.3081C61.5125 20.5581 60.9292 20.0289 60.5083 19.1414C60.3708 18.8373 60.175 18.3331 60.3958 17.9998C60.4542 17.7748 60.5708 17.6873 60.7875 17.6248C61.1542 17.3248 62.1833 17.7164 62.5458 17.8831C63.575 18.2998 64.4417 18.6914 65.3042 19.2748C65.6958 19.5498 66.1167 20.0789 66.6167 20.2164H67.2C68.0917 20.4123 69.0958 20.2748 69.9292 20.5206C71.4083 20.9956 72.7417 21.6873 73.9375 22.4373C77.6222 24.7911 80.6193 28.0771 82.625 31.9623C82.9583 32.6039 83.1042 33.1914 83.4083 33.8581C83.9917 35.2331 84.7125 36.6206 85.3042 37.9498C85.8875 39.2623 86.45 40.5998 87.2875 41.6873C87.7042 42.2706 89.3792 42.5748 90.1292 42.8789C90.6833 43.1289 91.5458 43.3581 92.0458 43.6623C93.0042 44.2456 93.9375 44.9123 94.8375 45.5539C95.2958 45.8706 96.6833 46.5664 96.7667 47.1289Z" fill="white"/>
</svg>
