<svg width="100" height="100" viewBox="0 0 100 100" fill="none" xmlns="http://www.w3.org/2000/svg">
<path d="M50 42.1252C51.5375 42.1253 53.0406 42.5802 54.3201 43.4327C55.5995 44.2853 56.5982 45.4973 57.1903 46.9162C57.7824 48.3351 57.9415 49.8974 57.6475 51.4065C57.3536 52.9156 56.6197 54.3041 55.5384 55.397C54.457 56.4899 53.0765 57.2385 51.5706 57.5485C50.0647 57.8585 48.5007 57.716 47.0756 57.139C45.6505 56.5621 44.4279 55.5764 43.5618 54.306C42.6957 53.0357 42.2248 51.5376 42.2084 50.0002C42.2029 48.9715 42.4001 47.9518 42.7887 46.9993C43.1773 46.0468 43.7497 45.1802 44.4732 44.4489C45.1967 43.7177 46.0572 43.1361 47.0055 42.7374C47.9538 42.3387 48.9713 42.1306 50 42.1252ZM30.7084 83.3335C33.3334 84.9168 39.0417 82.5002 45.7084 76.2502C43.4802 73.7181 41.3803 71.0759 39.4167 68.3335C36.056 67.9571 32.7178 67.4008 29.4167 66.6668C27.2917 75.5835 28.0834 81.7085 30.7084 83.3335ZM33.6667 59.4168L32.4584 57.2918C31.9873 58.4622 31.5839 59.6586 31.25 60.8752C32.375 61.1252 33.625 61.3335 34.9167 61.5418L33.6667 59.4168ZM60.9167 56.2502L64.2917 50.0002L60.9167 43.7502C59.6667 41.5418 58.3334 39.5835 57.125 37.6252C54.875 37.5002 52.5 37.5002 50 37.5002C47.5 37.5002 45.125 37.5002 42.875 37.5002C41.6667 39.4585 40.3334 41.4168 39.0834 43.6252L35.7084 50.0002L39.0834 56.2502C40.3334 58.4585 41.6667 60.4168 42.875 62.3752C45.125 62.3752 47.5 62.3752 50 62.3752C52.5 62.3752 54.875 62.3752 57.125 62.3752C58.3334 60.4168 59.6667 58.4585 60.9167 56.2502ZM50 28.2502C49.2084 29.1668 48.375 30.1252 47.5417 31.2502H52.4584C51.625 30.1252 50.7917 29.1668 50 28.2502ZM50 71.7502C50.7917 70.8335 51.625 69.8752 52.4584 68.7502H47.5417C48.375 69.8752 49.2084 70.8335 50 71.7502ZM69.25 16.6668C66.6667 15.0835 60.9167 17.5002 54.2917 23.7502C56.5199 26.2823 58.6198 28.9245 60.5834 31.6668C63.9411 31.9882 67.2792 32.4889 70.5834 33.1668C72.7084 24.2502 71.9167 18.1252 69.25 16.5002M66.3334 40.4168L67.5417 42.5418C68.0127 41.3715 68.4162 40.1751 68.75 38.9585C67.625 38.7085 66.375 38.5002 65.0834 38.2918L66.3334 40.4168ZM72.375 11.2502C78.5 14.7502 79.1667 23.9585 76.5417 34.7085C87.125 37.8335 94.75 43.0418 94.75 50.0418C94.75 57.0418 87.125 62.2502 76.5417 65.3752C79.125 76.1252 78.4584 85.3335 72.375 88.8335C66.2917 92.3335 58 88.3335 50 80.7085C42 88.3335 33.7084 92.3335 27.5834 88.8335C21.4584 85.3335 20.8334 76.3335 23.4167 65.3752C12.8334 62.2502 5.20837 57.0418 5.20837 50.0418C5.20837 43.0418 12.8334 37.7918 23.4167 34.6668C20.8334 23.9168 21.5 14.7085 27.5834 11.2085C33.6667 7.7085 42 11.7085 50 19.3335C58 11.7085 66.2917 7.7085 72.375 11.2085M71.1667 50.0002C72.6138 53.0674 73.8935 56.2109 75 59.4168C83.75 56.7918 88.6667 53.0418 88.6667 50.0002C88.6667 46.9585 83.625 43.2085 75 40.5835C73.8935 43.7894 72.6138 46.9329 71.1667 50.0002ZM28.8334 50.0002C27.3863 46.9329 26.1066 43.7894 25 40.5835C16.25 43.2085 11.3334 46.9585 11.3334 50.0002C11.3334 53.0418 16.375 56.7918 25 59.4168C26.1066 56.2109 27.3863 53.0674 28.8334 50.0002ZM66.3334 59.4168L65.0834 61.5418C66.375 61.5418 67.625 61.1252 68.75 60.8752C68.4162 59.6586 68.0127 58.4622 67.5417 57.2918L66.3334 59.4168ZM54.1667 76.2502C60.7917 82.5002 66.6667 84.9168 69.125 83.3335C71.5834 81.7502 72.5834 75.7502 70.4584 66.6668C67.1542 67.3448 63.8161 67.8455 60.4584 68.1668C58.4993 70.966 56.3994 73.664 54.1667 76.2502ZM33.6667 40.5835L34.9167 38.4585C33.625 38.4585 32.375 38.8752 31.25 39.1252C31.5839 40.3418 31.9873 41.5382 32.4584 42.7085L33.6667 40.5835ZM45.8334 23.7502C39.0834 17.5002 33.3334 15.0835 30.7084 16.6668C28.0834 18.2502 27.2917 24.2502 29.4167 33.3335C32.7209 32.6555 36.059 32.1548 39.4167 31.8335C41.4163 29.0314 43.558 26.3334 45.8334 23.7502Z" fill="white"/>
</svg>
