<svg width="100" height="100" viewBox="0 0 100 100" fill="none" xmlns="http://www.w3.org/2000/svg">
<path d="M50 10C26.0666 10 6.66663 26.4167 6.66663 46.6667C6.66663 57.8933 12.6444 67.9283 22.0377 74.6549C22.2776 79.7749 21.4842 86.8446 14.4205 90.1042L14.4075 90.1107C14.0919 90.2307 13.8202 90.4437 13.6284 90.7216C13.4366 90.9995 13.3337 91.329 13.3333 91.6667C13.3333 92.1087 13.5089 92.5326 13.8214 92.8452C14.134 93.1577 14.5579 93.3333 15 93.3333C15.0397 93.3333 15.0774 93.327 15.1171 93.3268C15.1258 93.3269 15.1345 93.3269 15.1432 93.3268C23.2566 93.2748 30.1442 88.8901 34.8958 84.2578C36.4025 82.7878 38.5029 82.0644 40.5729 82.4544C43.6062 83.0311 46.76 83.3333 50 83.3333C73.9333 83.3333 93.3333 66.9167 93.3333 46.6667C93.3333 26.4167 73.9333 10 50 10Z" fill="white"/>
</svg>
