<svg width="100" height="100" viewBox="0 0 100 100" fill="none" xmlns="http://www.w3.org/2000/svg">
<g clip-path="url(#clip0_1312_8)">
<path d="M49.9608 99.8823C77.5099 99.8823 99.8429 77.5492 99.8429 50.0001C99.8429 22.4509 77.5099 0.11792 49.9608 0.11792C22.4116 0.11792 0.0786133 22.4509 0.0786133 50.0001C0.0786133 77.5492 22.4116 99.8823 49.9608 99.8823Z" fill="black"/>
<path d="M90.0235 35.4674C90.0235 35.4674 77.2977 33.1108 69.835 34.7604C69.835 34.7604 61.0369 35.6245 58.6017 34.839C58.6017 34.839 52.553 33.3464 52.2388 42.773C52.2388 42.773 50.3535 61.5475 54.674 60.5263L56.9521 62.176C56.9521 62.176 58.5232 67.1249 62.1367 66.0251C62.1367 66.0251 66.5357 69.3244 68.1854 62.4902C68.1854 62.4902 69.3637 59.9764 78.0832 59.4265C78.0832 59.4265 85.3888 57.3841 86.3315 56.0487C86.3315 56.0487 89.3951 56.8342 92.4587 53.7706C92.4587 53.7706 94.1084 52.4352 99.6858 55.3417C99.8429 53.6135 100 51.8068 100 50.0785C100 45.0511 99.2144 40.1807 97.879 35.6245C95.758 35.3888 92.5373 35.0746 90.0235 35.4674Z" fill="white"/>
<path d="M64.179 46.1507C62.2152 45.4438 58.9159 40.4163 58.9159 40.4163C58.9159 40.4163 60.0156 43.3228 61.8224 44.8939C61.8224 44.8939 58.9944 43.4013 59.073 43.0871C59.073 43.0871 59.78 44.4225 60.9583 45.051C60.9583 45.051 61.9795 45.9151 62.6865 45.6794C62.6865 45.6794 62.5294 48.3503 60.0942 48.743C60.0942 48.743 58.2874 48.8216 57.0306 48.1146C57.0306 48.1146 58.6802 49.8428 59.3872 49.7643C59.3872 49.7643 58.9944 51.1782 59.8585 51.6496C59.8585 51.6496 56.3236 53.1421 55.3024 56.1272C55.3024 56.1272 57.7376 52.985 60.0156 52.4351C60.0156 52.4351 62.8436 51.4139 62.0581 54.8703C62.0581 54.8703 63.0007 54.0848 62.1366 52.1209C62.1366 52.1209 60.3299 50.864 62.7651 47.6433C62.7651 47.6433 66.7713 45.6009 64.7289 51.571C64.7289 51.571 66.6928 49.8428 65.6716 47.4076C65.6716 47.3291 65.6716 46.6221 64.179 46.1507Z" fill="#5E5E5E"/>
<path d="M62.608 54.9488C60.6441 54.8702 58.5231 57.8553 58.5231 57.8553C57.0306 60.4476 54.674 60.5262 54.674 60.5262L56.952 62.1758C56.952 62.1758 57.1091 62.5686 57.3448 63.197C57.3448 62.4115 57.4234 61.7045 57.4234 61.7045C57.8947 57.384 62.5294 55.4987 62.5294 55.4987C63.9434 54.6346 64.1005 52.4351 64.1005 52.4351C63.7863 53.9276 62.608 54.9488 62.608 54.9488Z" fill="#5E5E5E"/>
<path d="M99.8428 51.0998C98.1932 50.7856 96.7792 50.707 95.6009 50.8641C95.6009 50.8641 95.051 48.7432 99.45 47.6434C99.45 47.6434 91.9088 46.6222 87.2741 54.0063C87.2741 54.0063 84.6032 53.9278 82.9536 56.1273C82.9536 56.1273 84.6818 52.828 84.1319 51.7282C84.1319 51.7282 83.1892 56.0487 78.8687 56.8343C78.8687 56.8343 80.2827 53.9278 79.7328 52.7494C79.7328 52.7494 79.1829 55.4203 77.8475 56.363L76.8263 55.656C76.8263 55.656 74.8624 59.8979 68.7352 60.2121C68.7352 60.2121 63.9434 62.5688 61.9795 66.0252C62.2152 66.1823 66.4571 69.1674 68.0282 62.4902C68.0282 62.4902 69.2065 59.9765 77.9261 59.4266C77.9261 59.4266 85.2316 57.3842 86.1743 56.0487C86.1743 56.0487 89.2379 56.8343 92.3016 53.7707C92.3016 53.7707 93.9512 52.4352 99.5286 55.3417C99.6071 54.7919 99.6071 54.242 99.6857 53.7707C99.5286 53.7707 99.45 53.6921 99.2929 53.6921C99.2929 53.6921 99.45 53.6921 99.6857 53.7707C99.7643 52.828 99.7642 51.9639 99.8428 51.0998Z" fill="#5E5E5E"/>
<path d="M42.7337 38.4525C40.22 39.081 31.5004 37.667 31.5004 37.667C24.1948 35.546 11.3119 37.1171 11.3119 37.1171C7.54124 36.253 1.96386 36.8029 1.96386 36.8029C1.96386 36.8029 1.88531 36.8029 1.80676 36.8029C0.628437 41.0448 0 45.4439 0 50.0786C0 52.1996 0.157109 54.242 0.392773 56.363C6.20581 53.7707 7.7769 55.1847 7.7769 55.1847C10.6834 58.484 13.7471 57.8555 13.7471 57.8555C14.6112 59.1909 21.7596 61.7047 21.7596 61.7047C30.4006 62.8045 31.4218 65.3968 31.4218 65.3968C32.6787 72.3096 37.2349 69.3245 37.2349 69.3245C40.7698 70.6599 42.6551 65.8681 42.6551 65.8681L45.0118 64.3755C49.3323 65.711 48.6253 46.8579 48.6253 46.8579C48.861 37.2742 42.7337 38.4525 42.7337 38.4525Z" fill="white"/>
<path d="M36.4494 49.2931C38.4919 48.7432 42.0268 43.8728 42.0268 43.8728C42.0268 43.8728 40.6914 46.7008 38.8061 48.1933C38.8061 48.1933 41.7126 46.8579 41.7126 46.5437C41.7126 46.5437 40.927 47.8791 39.6702 48.3504C39.6702 48.3504 38.5704 49.136 37.942 48.8217C37.942 48.8217 37.942 51.4926 40.3772 52.0425C40.3772 52.0425 42.1839 52.2781 43.4408 51.5712C43.4408 51.5712 41.7126 53.2208 41.0056 53.0637C41.0056 53.0637 41.3198 54.5562 40.3772 54.949C40.3772 54.949 43.8336 56.6772 44.6977 59.7408C44.6977 59.7408 42.4981 56.4415 40.2201 55.8131C40.2201 55.8131 37.4706 54.6348 38.0205 58.1697C38.0205 58.1697 37.1564 57.3056 38.0991 55.4203C38.0991 55.4203 39.9844 54.242 37.7063 50.9427C37.7063 50.9427 33.8571 48.6646 35.5068 54.7133C35.5068 54.7133 33.6215 52.828 34.7998 50.4714C34.8783 50.3928 34.9569 49.7644 36.4494 49.2931Z" fill="#5E5E5E"/>
<path d="M37.4706 58.2483C39.4344 58.3269 41.3983 61.469 41.3983 61.469C42.6552 64.0613 45.0904 64.297 45.0904 64.297L42.7337 65.7895C42.7337 65.7895 42.5766 66.1823 42.2624 66.7322C42.3409 65.9467 42.3409 65.2397 42.3409 65.2397C42.1053 60.9192 37.6277 58.7982 37.6277 58.7982C36.2922 57.8555 36.2922 55.656 36.2922 55.656C36.2922 57.1485 37.4706 58.2483 37.4706 58.2483Z" fill="#5E5E5E"/>
<path d="M30.9506 63.0402C24.9019 62.3332 23.1737 58.0127 23.1737 58.0127L22.1525 58.6411C20.8956 57.6199 20.5028 54.9491 20.5028 54.9491C19.8744 56.1274 21.1312 59.1125 21.1312 59.1125C16.8893 58.0127 16.2609 53.6136 16.2609 53.6136C15.6324 54.7134 17.125 58.0912 17.125 58.0912C15.6324 55.7346 12.9616 55.6561 12.9616 55.6561C8.79817 48.0363 1.17838 48.5861 1.17838 48.5861C5.49888 50.0001 4.79189 52.0425 4.79189 52.0425C3.53502 51.7283 1.88537 51.8069 0.0786133 52.0425C0.0786133 52.9066 0.157168 53.6922 0.235722 54.5563C0.628495 54.4777 0.785605 54.4777 0.785605 54.4777C0.549941 54.4777 0.392832 54.5563 0.235722 54.6348C0.314277 55.1847 0.314277 55.6561 0.392832 56.2059C6.20587 53.6136 7.77696 55.0276 7.77696 55.0276C10.6835 58.3269 13.7471 57.6985 13.7471 57.6985C14.6112 59.0339 21.7597 61.5476 21.7597 61.5476C30.4007 62.6474 31.4219 65.2397 31.4219 65.2397C32.6002 71.9954 37.0778 69.246 37.2349 69.1674C35.5067 65.711 30.9506 63.0402 30.9506 63.0402Z" fill="#5E5E5E"/>
</g>
<defs>
<clipPath id="clip0_1312_8">
<rect width="100" height="100" fill="white"/>
</clipPath>
</defs>
</svg>
