<svg width="100" height="100" viewBox="0 0 100 100" fill="none" xmlns="http://www.w3.org/2000/svg">
<path d="M66.05 37.4208H46.9334V0H66.05C76.3667 0 84.7584 8.39167 84.7584 18.7083C84.7584 29.025 76.3667 37.4208 66.05 37.4208ZM53.0625 31.2917H66.05C72.9875 31.2917 78.6292 25.6458 78.6292 18.7125C78.6292 11.7792 72.9834 6.13333 66.05 6.13333H53.0625V31.2917ZM53.0625 37.4208H33.95C23.6334 37.4208 15.2417 29.0292 15.2417 18.7125C15.2417 8.39583 23.6334 0 33.95 0H53.0667V37.4208H53.0625ZM33.95 6.12917C27.0125 6.12917 21.3709 11.775 21.3709 18.7083C21.3709 25.6417 27.0125 31.2917 33.95 31.2917H46.9375V6.12917H33.95ZM53.0625 68.7083H33.95C23.6334 68.7083 15.2417 60.3167 15.2417 50C15.2417 39.6833 23.6334 31.2917 33.95 31.2917H53.0667V68.7083H53.0625ZM33.95 37.4208C27.0125 37.4208 21.3709 43.0667 21.3709 50C21.3709 56.9333 27.0167 62.5792 33.95 62.5792H46.9375V37.4208H33.95ZM34.05 100C23.6792 100 15.2375 91.6083 15.2375 81.2917C15.2375 70.975 23.6292 62.5833 33.9459 62.5833H53.0625V81.0875C53.0625 91.5167 44.5334 100 34.05 100ZM33.95 68.7083C30.6152 68.7127 27.4182 70.0395 25.0601 72.3976C22.702 74.7557 21.3753 77.9527 21.3709 81.2875C21.3709 88.225 27.0584 93.8667 34.0542 93.8667C41.1584 93.8667 46.9417 88.1333 46.9417 81.0833V68.7083H33.95ZM66.05 68.7083H65.6417C55.325 68.7083 46.9334 60.3167 46.9334 50C46.9334 39.6833 55.325 31.2917 65.6417 31.2917H66.05C76.3667 31.2917 84.7584 39.6833 84.7584 50C84.7584 60.3167 76.3667 68.7083 66.05 68.7083ZM65.6459 37.4208C58.7084 37.4208 53.0667 43.0667 53.0667 50C53.0667 56.9333 58.7125 62.5792 65.6459 62.5792H66.0542C72.9917 62.5792 78.6334 56.9333 78.6334 50C78.6334 43.0667 72.9834 37.4208 66.05 37.4208H65.6459Z" fill="white"/>
</svg>
